<?xml version="1.0" standalone="no"?>
<!DOCTYPE svg PUBLIC "-//W3C//DTD SVG 20010904//EN"
 "http://www.w3.org/TR/2001/REC-SVG-20010904/DTD/svg10.dtd">
<svg version="1.0" xmlns="http://www.w3.org/2000/svg"
 width="260.000000pt" height="260.000000pt" viewBox="0 0 260.000000 260.000000"
 preserveAspectRatio="xMidYMid meet">
<metadata>
Created by potrace 1.14, written by Peter Selinger 2001-2017
</metadata>
<g transform="translate(0.000000,260.000000) scale(0.100000,-0.100000)"
fill="#000000" stroke="none">
<path d="M1103 2586 c1 -7 -17 -11 -45 -11 -27 0 -48 -3 -48 -7 0 -4 -8 -4
-17 -1 -13 5 -15 2 -10 -12 6 -15 5 -16 -8 -5 -10 8 -15 9 -15 1 0 -6 -5 -11
-11 -11 -5 0 -8 4 -5 9 4 6 -5 6 -21 2 -16 -5 -27 -13 -26 -19 2 -7 -4 -9 -14
-5 -12 5 -14 3 -8 -8 8 -12 6 -12 -8 0 -11 9 -17 10 -17 2 0 -6 -3 -10 -7 -10
-25 4 -43 -2 -37 -12 5 -8 -1 -10 -20 -7 -20 4 -26 2 -22 -8 4 -11 -1 -13 -19
-10 -17 3 -23 1 -19 -6 5 -7 1 -9 -9 -5 -11 4 -20 -1 -27 -14 -6 -11 -15 -17
-19 -14 -5 3 -12 -2 -15 -11 -4 -10 -13 -13 -26 -9 -15 5 -18 3 -14 -10 4 -9
3 -15 -2 -14 -22 4 -35 -2 -28 -13 5 -7 3 -8 -5 -4 -7 5 -20 1 -29 -8 -48 -46
-74 -66 -83 -61 -5 4 -13 -5 -18 -18 -6 -14 -16 -29 -23 -33 -9 -5 -8 -2 2 12
14 18 14 18 -2 5 -10 -7 -18 -20 -18 -27 0 -8 -10 -14 -21 -14 -18 0 -19 -2
-9 -15 11 -13 10 -14 -3 -9 -10 3 -20 -3 -28 -18 -7 -13 -11 -25 -10 -26 2 -2
-1 -7 -5 -10 -4 -4 -4 -1 0 6 4 6 2 12 -3 12 -6 0 -11 -7 -11 -15 0 -8 -3 -14
-7 -14 -20 3 -26 -2 -13 -11 10 -6 11 -10 3 -10 -7 0 -13 -8 -13 -17 0 -14 -2
-15 -9 -4 -7 11 -10 9 -16 -8 -3 -12 -10 -19 -15 -16 -4 3 -11 -2 -14 -11 -4
-10 -2 -13 7 -8 9 6 9 5 0 -8 -7 -8 -10 -18 -6 -22 4 -4 0 -4 -8 -1 -12 5 -21
-5 -33 -35 -10 -24 -21 -38 -27 -34 -7 4 -7 -2 1 -16 7 -12 8 -20 3 -17 -4 2
-17 -5 -28 -16 l-20 -20 20 6 c19 7 19 6 1 -7 -10 -8 -15 -19 -12 -25 4 -5 1
-13 -5 -17 -8 -5 -9 -3 -4 6 5 8 4 11 -3 6 -6 -4 -14 -22 -18 -41 -3 -19 -10
-33 -14 -30 -5 3 -12 0 -16 -6 -4 -8 -3 -9 4 -5 7 4 12 3 12 -3 0 -5 -4 -12
-10 -16 -5 -3 -7 -12 -3 -20 3 -8 0 -15 -5 -15 -6 0 -9 -9 -7 -20 2 -11 0 -18
-6 -15 -5 4 -9 0 -9 -9 0 -8 6 -17 13 -19 7 -4 6 -6 -5 -6 -12 -1 -15 -7 -10
-23 4 -17 2 -20 -11 -15 -18 7 -19 -13 -2 -25 7 -5 7 -8 0 -8 -6 0 -10 -22
-10 -49 1 -39 -1 -48 -13 -44 -12 5 -12 2 -2 -17 8 -15 8 -20 1 -16 -8 5 -10
-44 -8 -174 1 -123 6 -183 14 -188 6 -4 10 -28 10 -54 -1 -26 2 -44 7 -40 5 3
7 -2 3 -11 -4 -10 -2 -16 5 -14 6 1 13 -4 16 -12 3 -9 0 -11 -9 -6 -11 6 -12
5 -1 -6 16 -17 16 -32 0 -23 -10 6 -10 5 -1 -8 7 -8 9 -19 5 -23 -4 -5 -1 -5
6 -1 7 4 12 1 12 -8 0 -9 6 -16 13 -16 9 0 9 -2 -1 -9 -11 -7 -11 -11 2 -23 8
-9 12 -18 9 -22 -4 -3 -1 -6 6 -6 8 0 11 -8 8 -20 -3 -11 -1 -20 5 -20 6 0 7
-7 4 -16 -3 -8 -2 -12 4 -9 6 3 10 -1 10 -10 0 -9 5 -13 10 -10 6 4 10 -5 10
-20 0 -14 4 -24 8 -21 4 2 9 -7 10 -21 2 -30 20 -55 33 -47 5 3 9 -4 9 -15 0
-23 39 -73 50 -66 4 2 6 -7 4 -20 -2 -22 0 -24 18 -14 13 7 18 7 14 1 -3 -6 2
-18 11 -28 17 -17 17 -18 1 -11 -10 3 -18 2 -18 -3 0 -6 12 -10 26 -10 23 0
25 -2 14 -15 -11 -13 -10 -14 5 -8 15 5 17 3 12 -12 -7 -16 -5 -16 10 -4 9 8
14 9 10 2 -9 -14 41 -75 54 -67 5 3 9 -2 9 -10 0 -8 9 -18 20 -21 11 -4 18
-11 15 -16 -3 -5 1 -6 9 -3 9 3 16 1 16 -5 0 -7 8 -15 17 -18 10 -4 30 -19 45
-35 15 -15 37 -28 49 -28 15 0 19 -4 15 -16 -5 -12 -1 -14 15 -9 15 5 19 4 15
-4 -4 -6 0 -11 9 -11 10 0 13 -5 9 -12 -5 -9 -2 -9 9 1 12 9 17 10 17 2 0 -7
5 -9 10 -6 6 4 9 1 8 -7 -2 -8 8 -14 25 -16 15 -2 25 -8 22 -13 -4 -5 0 -9 7
-10 7 -1 22 -2 33 -3 11 0 19 -6 18 -13 -1 -6 5 -10 15 -8 9 1 20 -3 24 -9 5
-8 8 -7 8 2 0 8 8 5 22 -8 24 -22 53 -28 42 -8 -6 10 -4 11 7 1 7 -7 21 -13
32 -13 10 0 15 -5 12 -10 -3 -6 1 -10 10 -10 9 0 13 4 10 10 -3 5 -1 10 4 10
6 0 11 -7 11 -15 0 -8 5 -15 11 -15 5 0 7 6 4 13 -4 6 0 4 8 -6 14 -16 15 -16
21 -1 5 13 10 14 18 6 6 -6 17 -8 24 -5 8 3 14 1 14 -5 0 -6 -6 -12 -12 -15
-7 -2 -1 -4 14 -3 14 0 24 4 22 8 -2 4 0 10 6 13 6 4 9 1 8 -7 -2 -10 28 -13
145 -14 135 -2 147 0 135 15 -12 15 -11 15 7 0 23 -19 60 -19 78 1 10 12 9 12
-5 2 -12 -10 -18 -10 -24 -1 -4 7 -3 9 4 5 6 -3 13 -2 17 4 4 6 12 7 18 3 18
-11 49 -14 43 -5 -3 5 1 9 9 9 8 0 12 -3 10 -7 -2 -4 2 -7 10 -7 8 0 11 5 8
10 -4 6 1 8 11 4 9 -4 15 -3 12 2 -3 5 2 12 11 16 10 3 19 1 21 -5 3 -7 10 -4
18 7 9 12 13 13 14 5 0 -7 5 -10 10 -7 6 4 7 12 3 18 -4 8 -1 7 9 -1 13 -10
18 -10 24 -1 5 8 3 9 -6 4 -8 -5 -11 -4 -7 3 4 5 17 8 29 4 12 -3 19 -1 15 4
-3 6 3 11 14 11 12 1 17 -2 12 -10 -3 -7 6 0 22 16 27 26 33 29 65 31 8 1 15
6 15 13 0 6 4 15 9 20 5 5 6 3 2 -4 -9 -16 -1 -16 26 -2 17 9 18 13 7 20 -9 6
-3 8 19 4 23 -4 31 -2 30 7 -2 7 3 12 10 10 6 -1 12 3 12 9 0 5 13 15 30 20
16 6 27 15 24 20 -3 5 2 9 10 9 9 0 16 6 16 14 0 8 5 18 12 22 6 4 8 3 5 -2
-3 -5 3 -10 13 -10 10 0 18 3 18 6 -2 20 4 30 14 24 8 -5 9 -2 5 10 -5 14 -3
17 8 12 8 -3 15 -1 15 5 0 6 4 8 9 5 5 -3 8 2 7 11 0 10 5 18 12 19 6 1 16 2
21 3 5 0 12 8 15 17 5 12 3 14 -7 8 -7 -5 -5 -2 5 7 9 9 14 20 10 25 -4 5 2 2
12 -6 11 -8 17 -10 13 -4 -4 7 0 14 8 17 8 4 12 15 10 27 -4 18 -2 20 11 9 12
-10 13 -9 9 4 -4 8 -1 18 6 23 8 5 10 3 4 -6 -5 -9 -4 -11 4 -6 9 6 9 12 -1
24 -7 10 -9 14 -4 10 10 -9 55 34 48 46 -3 5 3 6 13 2 14 -5 16 -4 6 8 -9 11
-8 15 4 20 8 3 15 15 15 26 0 12 3 19 8 17 4 -3 14 2 22 11 13 14 12 15 -5 9
-20 -7 -20 -7 -1 8 17 13 17 17 5 32 -13 16 -12 17 4 4 15 -12 17 -11 17 2 0
9 8 21 18 26 13 8 14 10 2 11 -12 0 -13 2 -1 9 7 5 14 19 15 32 0 13 6 24 13
24 6 0 15 4 20 9 5 5 3 6 -4 2 -16 -9 -17 10 -2 20 8 4 7 9 -2 15 -11 7 -11 9
-1 9 7 0 10 4 7 10 -3 5 1 10 11 10 14 0 15 2 3 17 -12 14 -12 16 0 8 10 -6
13 -4 9 6 -3 8 0 23 8 34 8 10 14 24 14 29 -1 6 -8 0 -16 -14 -10 -17 -13 -18
-8 -5 3 11 7 26 7 33 0 7 6 11 12 8 6 -2 12 2 12 10 0 8 -4 14 -8 14 -5 0 -6
7 -3 15 4 8 11 12 18 8 6 -4 5 1 -3 10 -12 15 -11 17 5 18 12 0 14 3 6 6 -10
4 -10 8 -1 19 10 12 8 13 -7 8 -17 -5 -17 -4 -3 8 13 11 16 41 16 191 0 134
-3 181 -13 191 -10 10 -10 16 -1 26 10 10 8 12 -6 7 -15 -6 -16 -4 -6 14 8 15
8 24 0 32 -15 15 -14 30 2 22 6 -4 4 0 -5 8 -21 16 -24 31 -5 22 6 -4 5 -1 -4
7 -9 7 -14 23 -12 36 1 13 -1 21 -6 18 -5 -3 -12 1 -15 10 -3 8 -2 12 4 9 6
-3 10 -1 10 4 0 6 -7 11 -16 11 -13 0 -14 3 -4 15 10 12 9 16 -4 21 -9 3 -13
10 -10 15 3 5 1 9 -4 9 -6 0 -13 7 -16 16 -4 10 -2 13 6 8 8 -5 9 -2 5 10 -4
10 -7 20 -7 22 0 2 -8 4 -17 4 -15 0 -16 2 -3 10 12 7 12 10 1 10 -8 0 -11 6
-7 16 4 11 -1 18 -14 21 -11 3 -20 10 -20 15 0 5 4 6 10 3 6 -3 7 1 4 9 -3 9
-11 14 -16 13 -6 -1 -13 4 -16 12 -3 9 0 11 9 6 8 -4 1 5 -14 20 -16 15 -26
33 -23 41 3 9 0 11 -11 7 -11 -4 -14 -2 -9 5 4 7 2 12 -4 12 -6 0 -8 5 -4 12
5 7 2 9 -8 5 -10 -3 -15 0 -14 11 1 10 -6 16 -16 16 -10 -1 -18 2 -18 7 0 5 8
9 18 9 14 0 15 2 2 9 -8 6 -18 7 -24 4 -5 -3 -6 -2 -3 4 9 15 -49 77 -64 67
-8 -4 -10 -3 -5 4 4 7 0 22 -8 34 -9 12 -16 18 -16 12 0 -5 3 -14 8 -20 4 -5
-3 1 -15 13 -13 12 -23 27 -23 33 0 6 -4 8 -10 5 -5 -3 -10 -1 -10 5 0 6 -5 8
-12 4 -6 -4 -9 -3 -5 2 3 5 -2 18 -10 29 -12 15 -14 16 -10 3 4 -12 2 -15 -8
-12 -8 3 -13 11 -12 17 1 7 -4 11 -10 10 -12 -3 -17 9 -14 30 0 4 -4 7 -9 7
-6 0 -10 -6 -10 -12 0 -7 -5 -5 -11 5 -6 9 -14 15 -18 12 -5 -2 -14 2 -21 10
-8 9 -8 15 -2 15 6 0 13 -5 15 -10 3 -6 4 -5 3 2 -1 7 -19 14 -39 16 -25 2
-38 9 -42 22 -3 11 -9 19 -13 19 -4 -1 -14 -1 -22 0 -13 1 -13 2 0 11 20 13 4
13 -20 0 -16 -8 -18 -7 -15 8 2 14 -4 18 -28 20 -18 2 -34 7 -35 13 -3 6 -9 5
-19 -2 -8 -8 -13 -8 -11 -2 2 6 -1 12 -7 13 -5 0 -19 9 -30 19 -13 11 -35 17
-63 17 -31 -1 -41 3 -37 12 3 7 1 11 -4 7 -5 -3 -12 1 -15 7 -3 7 -3 2 0 -12
6 -24 5 -24 -8 -6 -10 13 -22 17 -37 13 -11 -3 -21 -2 -21 3 0 4 -19 6 -42 5
-22 -2 -36 0 -29 5 22 13 -7 16 -157 19 -109 1 -142 -1 -136 -10 5 -9 3 -9 -7
-3 -20 13 -78 13 -76 0z m627 -67 c0 -6 -4 -7 -10 -4 -5 3 -10 11 -10 16 0 6
5 7 10 4 6 -3 10 -11 10 -16z m-1255 -228 c3 -5 2 -12 -3 -15 -5 -3 -9 1 -9 9
0 17 3 19 12 6z m1795 -131 c0 -5 -5 -10 -11 -10 -5 0 -7 5 -4 10 3 6 8 10 11
10 2 0 4 -4 4 -10z m317 -692 c4 -28 -6 -18 -12 12 -2 12 -1 20 2 16 4 -4 8
-16 10 -28z m-2392 -828 c3 -5 1 -10 -4 -10 -6 0 -11 5 -11 10 0 6 2 10 4 10
3 0 8 -4 11 -10z m206 -267 c13 -16 12 -17 -3 -4 -17 13 -22 21 -14 21 2 0 10
-8 17 -17z"/>
</g>
</svg>
